<svg xmlns="http://www.w3.org/2000/svg" xml:space="preserve" width="33.4652mm" height="10.0395mm" version="1.1" style="shape-rendering:geometricPrecision; text-rendering:geometricPrecision; image-rendering:optimizeQuality; fill-rule:evenodd; clip-rule:evenodd"
viewBox="0 0 2047 614"
 xmlns:xlink="http://www.w3.org/1999/xlink">
   <polygon fill="black" points="0,0 2047,0 2047,614 0,614 "/>
    <path  fill="#fefefe" fill-rule="nonzero" d="M390 256c11,-7 19,-15 26,-23 7,-8 11,-18 14,-29 5,-21 2,-38 -9,-49 -11,-11 -30,-17 -55,-17l-121 0 -60 247 122 0c27,0 50,-6 69,-18 10,-7 19,-15 25,-25 7,-9 11,-20 13,-31 3,-14 2,-25 -2,-34 -4,-9 -11,-16 -22,-21zm-74 35c13,0 18,6 15,16 -1,6 -4,10 -8,13 -3,2 -8,3 -15,3l-28 0 8 -32 28 0zm15 -91c12,0 17,5 15,15 -2,5 -4,9 -8,11 -3,2 -8,3 -14,3l-21 0 8 -29 20 0zm169 121c-19,0 -26,-9 -22,-25l38 -158 -80 0 -37 153c-4,15 -5,29 -3,41 1,12 6,23 13,32 7,8 17,15 29,19 13,5 28,7 45,7 18,0 34,-2 48,-7 15,-4 28,-11 39,-19 12,-9 21,-20 29,-32 8,-12 14,-26 17,-41l38 -153 -81 0 -39 158c-4,16 -15,25 -34,25zm82 64l173 0 18 -70 -93 0 43 -177 -81 0 -60 247zm153 0l174 0 17 -70 -93 0 43 -177 -80 0 -61 247zm404 -146c4,-16 5,-30 3,-42 -2,-13 -7,-23 -14,-32 -7,-9 -17,-15 -30,-20 -12,-5 -28,-7 -45,-7l-104 0 -60 247 104 0c17,0 33,-2 48,-7 15,-5 29,-11 40,-20 12,-9 21,-19 29,-32 8,-12 14,-26 18,-42l11 -45zm-91 43c-3,12 -7,20 -14,25 -6,6 -16,8 -29,8l-18 0 26 -107 19 0c12,0 20,2 24,8 4,5 5,14 2,25l-10 41zm119 -122c-23,17 -39,42 -47,74l-13 55c-8,32 -4,57 11,75 15,17 40,26 75,26 35,0 65,-9 89,-26 23,-18 39,-43 47,-75l13 -55c8,-32 4,-57 -11,-74 -15,-18 -40,-27 -75,-27 -36,0 -65,9 -89,27zm35 69c4,-17 17,-26 37,-26 20,0 28,9 24,26l-16 65c-4,18 -17,26 -37,26 -20,0 -28,-8 -24,-26l16 -65zm141 -91l-17 70 88 0 -121 132 -11 45 201 0 17 -70 -91 0 121 -131 12 -46 -199 0zm244 88l4 -18 102 0 17 -70 -183 0 -60 247 185 0 17 -70 -104 0 5 -20 82 0 17 -69 -82 0zm129 159l19 -76 13 0 37 172 93 0 -46 -185c26,-15 43,-38 51,-71 3,-14 4,-26 2,-37 -1,-11 -5,-20 -11,-27 -6,-8 -14,-13 -25,-17 -10,-4 -22,-6 -36,-6l-117 0 -60 247 80 0zm44 -177l26 0c6,0 10,1 12,4 2,3 3,8 2,13 -2,5 -4,9 -8,13 -4,3 -9,5 -14,5l-27 0 9 -35z"/>
    <polygon fill="#fefefe" fill-rule="nonzero" points="1845,481 161,481 178,412 1850,412 "/>
</svg>
