<svg xmlns="http://www.w3.org/2000/svg" xml:space="preserve" width="8.0358mm" height="8.0358mm" version="1.1" style="shape-rendering:geometricPrecision; text-rendering:geometricPrecision; image-rendering:optimizeQuality; fill-rule:evenodd; clip-rule:evenodd"
viewBox="0 0 167 167"
 xmlns:xlink="http://www.w3.org/1999/xlink">
 <g id="_1214526576">
   <path fill="black" d="M84 40c23,0 43,20 43,44 0,23 -20,43 -43,43 -24,0 -44,-20 -44,-43 0,-24 20,-44 44,-44zm0 16c15,0 28,12 28,28 0,15 -13,28 -28,28 -16,0 -28,-13 -28,-28 0,-16 12,-28 28,-28z"/>
  <path fill="black" d="M129 28c6,0 11,5 11,11 0,6 -5,10 -11,10 -6,0 -10,-4 -10,-10 0,-6 4,-11 10,-11z"/>
  <path fill="black" d="M48 0l72 0c26,0 47,21 47,48l0 72c0,26 -21,47 -47,47l-72 0c-27,0 -48,-21 -48,-47l0 -72c0,-27 21,-48 48,-48zm0 15l72 0c18,0 32,15 32,33l0 72c0,18 -14,32 -32,32l-72 0c-18,0 -33,-14 -33,-32l0 -72c0,-18 15,-33 33,-33z"/>
  </g>
</svg>
