<svg xmlns="http://www.w3.org/2000/svg" xml:space="preserve" width="8.0358mm" height="8.0358mm" version="1.1" style="shape-rendering:geometricPrecision; text-rendering:geometricPrecision; image-rendering:optimizeQuality; fill-rule:evenodd; clip-rule:evenodd"
viewBox="0 0 320 320">
 <path fill="black" d="M91 0l138 0c50,0 91,41 91,91l0 138c0,50 -41,91 -91,91l-138 0c-50,0 -91,-41 -91,-91l0 -138c0,-50 41,-91 91,-91zm0 28l138 0c35,0 63,29 63,63l0 138c0,35 -28,63 -63,63l-138 0c-34,0 -63,-28 -63,-63l0 -138c0,-34 29,-63 63,-63z"/>
 <path fill="black" d="M88 106l-31 0c-8,0 -8,6 0,21 18,40 40,70 65,88 15,7 30,12 50,9 5,0 7,-5 7,-13 3,-22 12,-16 22,-6 10,12 17,20 27,20l33 0c10,-1 11,-8 3,-19 -9,-10 -18,-18 -26,-27 -6,-5 -6,-12 3,-23 11,-12 21,-26 27,-40 3,-6 0,-9 -6,-10l-37 0c-4,0 -7,3 -10,8l-19 36c-12,15 -18,15 -18,0l1 -33c0,-9 -3,-15 -11,-16 -11,-1 -22,-1 -33,0 -5,1 -9,3 -11,6 -2,2 -1,4 2,3 6,1 9,5 9,12l1 27c-1,11 -5,15 -11,11 -10,-11 -19,-26 -27,-46 -2,-6 -6,-8 -10,-8z"/>
</svg>
